<svg width="278" height="375" viewBox="0 0 278 375" fill="none" xmlns="http://www.w3.org/2000/svg">
<path fill-rule="evenodd" clip-rule="evenodd" d="M104.483 0.785042C101.342 1.16629 98.344 1.65129 97.8205 1.86262C97.297 2.07394 95.2624 2.61035 93.2993 3.05395C91.3361 3.49802 89.3092 4.0825 88.7956 4.35285C83.2973 7.24478 82.4844 7.55987 80.6921 7.49181C78.8579 7.42279 77.2108 8.04726 75.7935 9.34996C75.4375 9.67742 74.9454 9.94491 74.7003 9.94491C74.4547 9.94491 73.5933 10.5337 72.7852 11.2538C71.9775 11.9739 71.069 12.5603 70.7668 12.5579C70.1705 12.5522 68.2582 14.3918 67.1374 16.0491C66.7524 16.6184 66.2522 17.0843 66.0261 17.0843C65.259 17.0843 58.3248 24.4503 57.4248 26.2213C56.9332 27.189 56.0228 28.4579 55.4022 29.0409C54.7816 29.624 54.2738 30.3094 54.2738 30.564C54.2738 30.8187 53.5242 31.9419 52.608 33.06C51.6919 34.1785 50.9423 35.2974 50.9423 35.5473C50.9423 36.2765 48.9891 40.5297 48.0221 41.9076C47.5342 42.6025 47.1349 43.6201 47.1349 44.1684C47.1349 44.7172 46.9446 45.166 46.7118 45.166C46.4796 45.166 46.1484 45.9157 45.9766 46.8319C45.8047 47.7481 45.513 48.4982 45.3288 48.4987C45.1442 48.4992 44.6026 50.2664 44.1247 52.4254C43.6474 54.5843 43.0582 56.7228 42.816 57.1774C42.5737 57.6319 42.3757 58.4496 42.3757 58.9936C42.3757 60.3201 41.5319 61.8247 40.7881 61.8247C39.7096 61.8247 37.6241 62.9998 37.6203 63.6095C37.6184 63.937 37.8307 64.2045 38.0924 64.2045C38.3542 64.2045 38.5684 65.0612 38.5684 66.1083C38.5684 67.1554 38.3675 68.0121 38.1215 68.0121C37.6736 68.0121 37.2144 70.4038 36.9793 73.9617C36.9103 75.0088 36.5124 76.508 36.0955 77.2934C35.67 78.0939 35.3231 79.9307 35.3045 81.4747C35.2869 82.9892 35.1355 84.4499 34.968 84.7208C34.5987 85.3186 34.6382 93.6379 35.0323 98.2357C35.1893 100.068 35.2988 102.21 35.2755 102.995C35.2522 103.781 35.4221 104.852 35.6529 105.375C36.3872 107.042 37.2301 111.271 36.926 111.763C36.5804 112.322 39.2637 120.564 40.3331 122.229C40.9018 123.115 41.1022 125.12 41.2131 131.034C41.3811 139.973 41.8394 143.977 42.8536 145.356C43.0458 145.618 43.3547 146.67 43.5398 147.695C43.912 149.757 45.1527 151.785 47.7774 154.622C48.9844 155.926 49.5145 156.941 49.5145 157.948C49.5145 158.892 49.7535 159.397 50.2003 159.397C51.601 159.397 52.0993 161.266 54.2595 174.627C54.4922 176.067 55.0114 178.637 55.4136 180.339C55.8153 182.04 56.4706 184.825 56.8699 186.526C57.757 190.306 58.2548 192.172 59.2833 195.57C59.7192 197.009 60.1866 198.777 60.3222 199.496C60.4579 200.216 60.7587 200.805 60.9904 200.805C61.2227 200.805 61.4126 201.229 61.4126 201.748C61.4126 202.702 62.5277 206.038 63.3748 207.618C63.6294 208.092 63.7027 208.906 63.5376 209.425C63.3724 209.945 63.4957 210.681 63.8112 211.061C64.1267 211.442 64.1977 211.756 63.9692 211.76C63.3224 211.771 67.7623 215.544 68.4324 215.552C68.7598 215.557 69.0273 215.76 69.0273 216.004C69.0273 216.248 69.5089 216.598 70.0981 216.782C70.6873 216.966 71.276 217.248 71.4069 217.409C71.6187 217.67 72.9798 218.464 75.9282 220.046C76.4517 220.328 76.9871 220.672 77.118 220.811C77.7248 221.458 82.2598 224.127 82.7519 224.127C83.056 224.127 83.3049 224.317 83.3049 224.549C83.3049 224.781 84.1026 225.35 85.0777 225.812C87.3893 226.909 88.0641 227.623 88.0641 228.972C88.0641 229.58 88.3816 231.577 88.7699 233.409C89.1578 235.241 89.479 237.423 89.4838 238.258C89.4914 239.711 89.3948 239.789 87.2313 240.077C84.4786 240.445 82.7395 241.077 81.5702 242.135C81.0848 242.575 79.1882 243.681 77.3559 244.595C75.5236 245.508 73.9531 246.417 73.866 246.615C73.7784 246.812 73.4039 246.973 73.0331 246.973C72.6619 246.973 72.3587 247.188 72.3587 247.449C72.3587 247.711 72.0128 247.925 71.5897 247.925C71.1666 247.925 68.1416 250.656 64.8673 253.994C58.1492 260.842 55.5778 263.918 54.4227 266.488C53.8773 267.701 52.3287 268.822 51.5891 268.538C51.1379 268.365 50.7905 268.632 50.6206 269.282C50.4745 269.84 50.1999 270.296 50.01 270.296C49.8201 270.296 49.2609 271.045 48.7673 271.961C48.2738 272.878 47.7051 273.627 47.5028 273.627C47.3006 273.627 47.1349 274.227 47.1349 274.96C47.1349 275.693 46.8913 276.536 46.5933 276.834C46.1146 277.313 45.4897 286.868 45.582 292.309C45.6115 294.058 45.0718 294.468 43.1729 294.138C42.9568 294.101 41.1793 294.401 39.2228 294.805C35.8451 295.502 32.9054 296.932 30.7823 298.911C30.2545 299.402 29.4878 299.814 29.079 299.825C28.6706 299.835 27.5946 300.478 26.6884 301.253C25.7823 302.027 24.8828 302.661 24.69 302.661C24.4973 302.661 23.812 303.15 23.1661 303.748C22.5208 304.347 21.3857 305.15 20.6433 305.532C19.9008 305.915 19.1222 306.497 18.9128 306.825C18.7034 307.153 18.306 307.421 18.0295 307.421C17.4099 307.421 14.1746 309.905 11.853 312.163C8.3769 315.546 6.69357 316.94 6.0863 316.94C3.91848 316.94 1.66404 323.248 1.12672 330.819C0.961105 333.151 0.64414 335.172 0.42236 335.309C-0.248212 335.723 -0.072597 343.477 0.613681 343.754C1.0896 343.946 1.0896 344.002 0.613681 344.032C-0.167781 344.081 -0.173017 347.258 0.607969 347.518C1.07437 347.674 1.07152 347.991 0.594168 349.039C0.21819 349.864 0.155845 350.568 0.429023 350.905C1.00965 351.623 1.04391 358.247 0.468525 358.602C-0.133039 358.974 -0.110195 361.68 0.494701 361.68C1.14766 361.68 1.09674 363.743 0.427121 364.413C0.0202083 364.82 0.0796984 365.369 0.665081 366.603C1.09484 367.508 1.44702 368.431 1.44702 368.653C1.44845 369.649 3.78093 371.675 4.9241 371.675C5.598 371.675 6.26143 371.857 6.3985 372.078C6.63027 372.453 16.2791 372.948 31.4296 373.362C45.3165 373.741 51.6576 374.153 51.9984 374.698C52.2539 375.106 52.5852 375.094 53.301 374.65C54.3999 373.969 55.7015 373.864 55.7015 374.457C55.7015 374.943 62.8456 374.881 63.6404 374.388C63.9492 374.196 64.3309 374.247 64.4875 374.501C64.8106 375.024 69.7269 374.942 70.2637 374.405C70.783 373.886 75.5883 373.981 75.9191 374.517C76.3098 375.149 87.8947 375.081 89.945 374.435C91.159 374.053 91.635 374.06 91.7692 374.462C91.9781 375.089 95.0226 375.208 95.3957 374.604C95.7745 373.991 98.6343 374.002 99.8432 374.62C100.618 375.016 101.211 375.026 101.985 374.658C102.58 374.374 106.119 374.13 109.956 374.108C113.752 374.086 118.785 373.962 121.141 373.833C126.246 373.552 125.754 373.549 128.934 373.885C130.342 374.034 131.627 373.957 131.79 373.716C131.958 373.466 133.526 373.412 135.418 373.59C137.251 373.763 139.071 373.753 139.464 373.569C141.012 372.843 145.169 372.661 145.76 373.294C146.229 373.796 146.62 373.803 147.781 373.329C149.749 372.525 160.464 372.641 161.471 373.477C162.073 373.976 162.327 373.967 162.868 373.427C163.368 372.927 165.143 372.765 170.176 372.762C183.046 372.754 191.131 372.691 193.957 372.576C195.527 372.512 197.669 372.502 198.716 372.554C199.763 372.606 204.581 372.7 209.424 372.765C214.722 372.836 218.585 373.091 219.125 373.404C219.735 373.759 220.644 373.782 221.98 373.475C224.871 372.81 257.752 372.807 258.553 373.472C259.15 373.967 274.93 374.477 275.239 374.011C276.139 372.652 277.005 369.798 277.005 368.185C277.005 367.068 277.212 365.947 277.465 365.694C278.13 365.028 278.193 360.156 277.552 358.958C276.913 357.763 276.74 348.364 277.333 347.086C278.132 345.365 277.361 331.694 276.465 331.694C276.239 331.694 276.053 331.078 276.053 330.325C276.053 329.572 275.732 328.689 275.339 328.363C274.946 328.037 274.625 327.261 274.625 326.639C274.625 326.016 274.349 325.507 274.011 325.507C273.674 325.507 272.772 324.436 272.008 323.127C271.243 321.818 270.335 320.747 269.989 320.747C269.643 320.747 269.237 320.426 269.086 320.033C268.935 319.641 268.547 319.32 268.222 319.32C267.898 319.32 266.86 318.57 265.917 317.654C264.974 316.737 263.985 315.988 263.721 315.988C263.456 315.988 262.42 315.184 261.418 314.203C260.416 313.221 259.074 312.097 258.436 311.704C257.798 311.311 256.517 310.187 255.589 309.205C254.661 308.224 253.639 307.421 253.317 307.421C252.996 307.421 252.733 307.206 252.733 306.945C252.733 306.683 252.224 306.469 251.601 306.469C250.979 306.469 250.203 306.147 249.877 305.755C249.551 305.362 249.008 305.041 248.669 305.041C248.33 305.041 247.982 304.88 247.894 304.684C247.699 304.246 242.945 301.945 241.311 301.499C240.656 301.32 239.693 300.992 239.169 300.771C236.461 299.628 234.05 298.853 233.204 298.853C232.682 298.853 231.883 298.654 231.429 298.41C230.417 297.866 224.567 296.473 223.298 296.473C222.04 296.473 221.921 295.937 222.079 291C222.464 278.983 222.432 276.522 221.855 273.865C221.513 272.295 221.067 270.795 220.864 270.534C220.661 270.272 220.35 269.255 220.173 268.273C219.996 267.291 219.647 266.488 219.397 266.488C219.147 266.488 218.942 266.259 218.942 265.98C218.942 265.701 218.407 264.771 217.753 263.912C217.064 263.01 216.563 261.719 216.563 260.851C216.563 260.024 216.372 259.348 216.14 259.348C215.907 259.348 215.581 258.625 215.415 257.741C215.249 256.856 214.583 255.56 213.935 254.86C213.286 254.16 212.755 253.483 212.755 253.354C212.755 252.993 211.741 251.854 209.701 249.926C208.676 248.956 207.406 247.682 206.879 247.092C206.352 246.504 205.762 246.022 205.568 246.022C205.373 246.022 204.394 245.202 203.393 244.201C202.114 242.922 200.72 242.131 198.716 241.546C197.145 241.088 195.432 240.534 194.908 240.314C194.056 239.957 191.532 239.156 187.26 237.888C186.456 237.649 184.599 237.454 183.135 237.454C180.03 237.454 178.965 237.136 178.965 236.207C178.965 235.839 178.719 235.144 178.42 234.664C177.453 233.116 178.294 231.464 180.598 230.38C181.763 229.832 183.749 228.469 185.011 227.351C186.273 226.232 187.858 224.885 188.533 224.356C189.208 223.828 189.995 222.956 190.283 222.418C190.571 221.88 191.729 220.814 192.857 220.047C193.986 219.282 195.503 218.012 196.23 217.226C199.736 213.434 201.485 211.752 201.921 211.752C202.955 211.752 211.804 203.425 211.804 202.452C211.804 202.128 212.556 200.77 213.476 199.432C215.016 197.195 215.191 196.573 215.678 191.644C215.968 188.699 216.365 180.72 216.559 173.913C216.754 167.107 217.038 161.003 217.192 160.349C217.346 159.694 217.602 158.336 217.761 157.33C217.976 155.968 218.649 154.922 220.4 153.225C221.692 151.973 222.75 150.605 222.75 150.186C222.75 149.767 223.177 148.723 223.7 147.866C224.222 147.009 224.651 145.734 224.652 145.033C224.652 144.332 224.94 143.471 225.29 143.122C225.64 142.772 226.056 141.632 226.214 140.589C226.373 139.546 226.747 137.3 227.045 135.599C227.646 132.166 227.279 122.611 226.535 122.351C226.285 122.264 226.081 121.926 226.081 121.601C226.081 121.276 225.583 120.542 224.974 119.97C223.962 119.019 223.875 118.571 223.957 114.742C224.007 112.439 224.285 110.109 224.576 109.564C225.261 108.286 225.322 106.759 224.888 101.805C224.594 98.4537 224.642 97.8616 225.165 98.3547C226.191 99.3218 226.557 99.0491 226.557 97.3185C226.557 96.1719 226.321 95.6422 225.76 95.5336C224.847 95.3575 223.754 91.3747 223.722 88.1048C223.711 86.983 223.377 85.5699 222.981 84.9644C222.057 83.5551 221.848 79.5161 222.673 79.0068C223.074 78.7589 223.168 78.1801 222.949 77.3077C222.673 76.2082 222.543 76.1149 222.183 76.7574C221.945 77.183 221.38 77.5314 220.928 77.5314C220.237 77.5314 220.122 77.1154 220.206 74.9155C220.273 73.1668 220.08 72.0735 219.624 71.6175C219.249 71.2425 218.942 70.6118 218.942 70.2159C218.942 69.8203 218.756 69.381 218.529 69.2406C218.302 69.1002 217.971 68.0807 217.794 66.9755C217.617 65.8699 217.284 64.738 217.053 64.4596C216.423 63.7009 216.132 59.8023 216.634 58.8499C216.965 58.2192 216.885 58.017 216.304 58.017C215.704 58.017 215.601 57.7152 215.838 56.6386C216.258 54.7266 213.924 49.8381 211.584 47.7262C210.968 47.1708 209.884 45.7786 209.173 44.6325C207.718 42.2841 205.644 39.9304 205.031 39.9304C204.807 39.9304 204.044 39.3893 203.335 38.7282C202.627 38.0671 201.25 37.1565 200.275 36.7053C199.3 36.2541 198.497 35.624 198.49 35.3046C198.483 34.9857 198.173 34.8419 197.801 34.9847C197.079 35.2617 195.875 33.5378 196.304 32.8424C196.654 32.2775 194.882 30.3337 194.113 30.4384C192.674 30.6335 192.291 30.3432 192.291 29.0571C192.291 28.3122 191.868 27.3203 191.351 26.8525C190.834 26.3846 190.284 25.6021 190.129 25.1128C189.974 24.624 189.522 24.2237 189.124 24.2237C188.726 24.2237 187.239 23.099 185.819 21.7249C181.053 17.1119 177.463 14.2286 176.488 14.2286C176.117 14.2286 175.378 13.823 174.845 13.3271C173.622 12.1867 171.148 10.8968 170.184 10.8968C169.778 10.8968 169.447 10.6969 169.447 10.4528C169.447 10.2086 168.965 9.86828 168.376 9.69646C166.508 9.15148 164.687 8.29618 164.687 7.96348C164.687 7.67934 161.901 6.894 159.214 6.42185C158.691 6.32951 157.62 5.90781 156.835 5.48468C156.049 5.06155 155.032 4.7141 154.574 4.7122C154.116 4.71077 153.741 4.51848 153.741 4.28526C153.741 4.05252 153.045 3.73933 152.194 3.58941C151.344 3.43995 149.256 3.07442 147.554 2.77742C145.853 2.47994 144.113 2.05824 143.687 1.84025C143.262 1.62226 140.847 1.29194 138.32 1.10679C135.794 0.921168 133.613 0.58514 133.474 0.359534C133.062 -0.306335 110.783 0.020649 104.483 0.785042ZM130.421 5.41281C131.337 5.52133 133.265 5.82547 134.704 6.08963C136.144 6.35331 138.5 6.7831 139.94 7.0444C141.379 7.30571 143.414 7.76168 144.461 8.05773C153.077 10.4942 152.535 10.3085 156.046 12.0301C157.444 12.7155 158.89 13.2766 159.258 13.2766C159.627 13.2766 159.928 13.4508 159.928 13.6636C159.928 14.0296 164.293 16.1324 165.053 16.1324C165.249 16.1324 165.678 16.5608 166.005 17.0843C166.332 17.6079 166.901 18.0362 167.269 18.0362C167.638 18.0362 168.02 18.2776 168.118 18.5727C168.216 18.8673 168.823 19.1614 169.467 19.2257C170.11 19.2899 170.904 19.3699 171.231 19.4032C171.559 19.437 171.826 19.9996 171.826 20.654C171.826 21.7949 172.239 22.0653 173.676 21.8644C174.086 21.8073 174.23 22.0462 174.057 22.4979C173.866 22.9948 173.996 23.14 174.468 22.9586C174.866 22.8058 175.158 22.9734 175.158 23.3551C175.158 23.8934 185.382 34.0956 186.947 35.1194C187.19 35.2784 187.643 35.8905 187.953 36.4797C188.399 37.3265 188.389 37.5587 187.905 37.5882C187.569 37.6087 187.883 37.841 188.602 38.1037C189.322 38.3669 189.934 38.8319 189.962 39.137C189.99 39.4426 190.043 40.1208 190.081 40.6444C190.118 41.1679 190.593 41.791 191.134 42.0294C192.11 42.4583 196.098 47.9713 196.098 48.8923C196.098 49.155 196.259 49.4416 196.455 49.5292C197.221 49.8695 203.237 62.4701 203.237 63.7352C203.237 64.4734 203.397 65.1483 203.594 65.2359C204.113 65.4667 205.411 68.3943 206.091 70.8679C206.415 72.0459 206.827 73.5452 207.008 74.1996C207.188 74.8541 207.284 76.4067 207.219 77.6504C207.156 78.894 207.266 79.9112 207.465 79.9112C207.663 79.9112 207.862 81.2182 207.906 82.816C207.95 84.4138 208.218 86.5827 208.502 87.636C208.869 88.9996 208.87 89.6983 208.507 90.062C207.77 90.7992 207.88 92.6174 208.741 93.9325C209.361 94.8787 209.402 95.5246 208.983 97.7864C208.707 99.2809 208.613 101.332 208.775 102.345C209.032 103.949 208.951 104.185 208.148 104.185C207.641 104.185 206.811 103.871 206.302 103.486C205.795 103.102 205.041 102.781 204.629 102.773C204.216 102.764 203.376 102.222 202.761 101.567C202.146 100.913 201.452 100.377 201.219 100.377C200.742 100.377 197.907 98.3261 196.098 96.6717C195.444 96.0734 194.533 95.6783 194.076 95.794C193.563 95.9239 193.243 95.734 193.243 95.3014C193.243 94.5422 193.033 94.309 190.149 91.8592C187.074 89.2476 179.988 82.7569 176.845 79.6732C175.244 78.1025 172.529 75.588 170.811 74.0854C169.092 72.5828 166.889 70.6014 165.915 69.6828C164.941 68.7637 163.945 68.0121 163.702 68.0121C163.459 68.0121 163.26 67.7271 163.26 67.3786C163.26 67.0302 162.76 66.4781 162.15 66.1516C161.54 65.8251 160.689 64.9855 160.258 64.2863C159.576 63.1788 158.215 61.511 155.432 58.3739C155.026 57.9156 154.693 57.3782 154.693 57.1793C154.693 56.7005 152.372 54.2093 151.927 54.2093C151.735 54.2093 151.175 53.4596 150.681 52.5434C150.188 51.6272 149.618 50.8775 149.416 50.8775C149.213 50.8775 147.538 48.4682 145.694 45.523C142.129 39.8291 140.378 37.5506 139.567 37.5506C139.292 37.5506 138.987 37.3112 138.89 37.0185C138.792 36.7239 137.177 36.376 135.281 36.2403C132.322 36.0285 131.849 36.1023 131.849 36.7729C131.849 37.2008 132.026 37.5506 132.243 37.5506C132.624 37.5506 135.656 43.1965 135.656 43.9057C135.656 44.097 136.093 44.7224 136.627 45.2955C137.16 45.8681 137.719 46.8233 137.868 47.4173C138.017 48.0118 138.33 48.4977 138.563 48.4977C138.797 48.4977 138.988 48.7233 138.988 48.9989C138.988 49.4568 143.715 56.1241 144.906 57.3468C145.185 57.6324 145.948 58.58 146.602 59.452C147.257 60.3239 148.274 61.5262 148.863 62.1236C149.452 62.7209 149.934 63.3415 149.934 63.5029C149.934 63.6642 150.202 64.0698 150.529 64.4044C150.856 64.7385 152.194 66.2673 153.503 67.8013C157.177 72.1073 163.524 78.4833 164.137 78.4833C164.44 78.4833 164.687 78.6794 164.687 78.9193C164.687 79.6575 168.65 83.5775 170.161 84.3338C170.946 84.7269 172.361 85.7664 173.304 86.6446C177.07 90.1496 178.116 90.9206 178.764 90.6717C179.149 90.5241 179.441 90.6969 179.441 91.0725C179.441 91.8197 184.014 96.5312 184.847 96.6422C185.145 96.6821 185.711 96.7364 186.104 96.763C186.496 96.7897 186.823 97.1319 186.831 97.5236C186.847 98.3713 191.014 102.757 191.804 102.757C192.324 102.757 195.119 104.674 196.489 105.97C196.98 106.435 196.986 106.565 196.517 106.565C196.18 106.565 196.321 106.871 196.84 107.264C197.348 107.648 198.216 107.97 198.768 107.978C199.321 107.986 200.562 108.528 201.526 109.183C202.49 109.837 203.484 110.373 203.734 110.373C203.984 110.373 204.189 110.587 204.189 110.849C204.189 111.11 204.467 111.325 204.808 111.325C205.148 111.325 206.003 111.593 206.708 111.92C207.86 112.455 207.989 112.767 207.992 115.013C207.995 116.538 207.789 117.512 207.465 117.512C207.151 117.512 207.029 118.011 207.166 118.729C207.594 120.966 206.719 121.243 200.04 120.988C196.694 120.861 193.207 120.563 192.291 120.327C191.375 120.09 189.727 119.896 188.63 119.895C187.533 119.893 186.513 119.692 186.362 119.449C186.107 119.036 184.661 118.808 178.727 118.244C173.468 117.745 172.374 117.167 173.849 115.672C174.326 115.188 174.278 114.946 173.611 114.453C173.153 114.114 172.778 113.618 172.778 113.35C172.778 112.606 170.412 111.217 169.646 111.512C169.261 111.659 168.971 111.485 168.971 111.106C168.971 110.741 168.381 110.002 167.662 109.465C166.942 108.929 165.898 108.035 165.341 107.48C164.784 106.925 163.774 106.439 163.097 106.399C162.357 106.356 161.637 105.9 161.293 105.256C160.95 104.616 160.273 104.185 159.61 104.185C159 104.185 158.5 103.956 158.5 103.675C158.5 102.799 157.384 102.03 155.407 101.545C154.174 101.243 153.533 100.829 153.587 100.371C153.669 99.6788 149.895 96.5698 148.973 96.5698C148.716 96.5698 148.506 96.3899 148.506 96.1705C148.506 95.9506 147.971 95.5265 147.316 95.2285C146.592 94.8987 146.126 94.8687 146.126 95.1519C146.126 95.4085 145.805 95.6179 145.413 95.6179C145.004 95.6179 144.699 95.189 144.699 94.615C144.699 93.9078 144.483 93.695 143.966 93.8935C142.883 94.3095 141.367 93.1667 141.367 91.9335C141.367 91.1757 141.086 90.8583 140.415 90.8583C139.892 90.8583 139.464 91.1039 139.464 91.4037C139.464 91.7036 138.938 91.3823 138.297 90.6898C137.655 89.9973 136.798 89.4304 136.393 89.4304C135.987 89.4304 135.656 89.132 135.656 88.7674C135.656 87.9135 134.355 87.4014 134.084 88.1481C133.97 88.4609 133.601 88.1272 133.263 87.4076C132.924 86.6879 132.474 86.0987 132.262 86.0987C131.771 86.0987 127.38 83.1239 127.169 82.6479C127.082 82.4514 126.707 82.291 126.336 82.291C125.965 82.291 125.662 81.9697 125.662 81.577C125.662 81.1539 125.225 80.8631 124.591 80.8626C123.66 80.8621 122.864 80.3595 120.09 78.0168C119.774 77.7498 119.297 77.5314 119.03 77.5314C118.763 77.5314 118.194 76.9959 117.765 76.3415C117.328 75.6742 116.53 75.1516 115.947 75.1516C115.363 75.1516 114.096 74.3191 113.05 73.2477C112.028 72.2006 110.951 71.3439 110.657 71.3439C110.363 71.3439 109.62 70.8084 109.005 70.154C108.39 69.4995 107.519 68.9641 107.069 68.9641C106.619 68.9641 106.126 68.6395 105.974 68.243C105.822 67.8465 105.21 67.3015 104.615 67.0326C102.145 65.917 99.551 64.2059 98.0942 62.7318C97.682 62.3149 96.6488 61.5724 95.7979 61.0826C94.9469 60.5924 94.2511 60.0236 94.2511 59.818C94.2511 59.6129 93.8161 59.4448 93.2845 59.4448C92.7524 59.4448 92.2047 59.1507 92.0666 58.7909C91.9286 58.4311 91.0786 57.74 90.1777 57.2545C89.2773 56.7695 88.5401 56.2074 88.5401 56.0051C88.5401 55.8028 88.3159 55.6372 88.0413 55.6372C87.7672 55.6372 87.0466 55.1017 86.4403 54.4473C85.8335 53.7928 85.1477 53.254 84.9159 53.2497C84.6841 53.2455 83.7452 52.5772 82.829 51.7652C79.4167 48.7391 77.2422 47.0699 76.712 47.0699C76.4117 47.0699 76.1661 46.9033 76.1661 46.6996C76.1661 46.4959 74.8392 45.9352 73.2173 45.4535C70.989 44.7919 70.0634 44.7058 69.4318 45.1003C68.9274 45.4149 68.4862 45.4454 68.3201 45.177C67.9632 44.5991 66.6434 45.1041 66.6615 45.8119C66.6739 46.3145 69.4333 49.4768 73.6985 53.8766C74.6632 54.8718 76.6301 56.5853 78.0698 57.6843C79.5095 58.7837 80.7587 59.8437 80.8458 60.0398C80.9334 60.2359 81.2099 60.3968 81.4607 60.3968C81.7115 60.3968 82.3897 60.8394 82.968 61.3801C83.5457 61.9208 84.6613 62.6709 85.4466 63.0469C86.2318 63.4229 87.5168 64.3196 88.3021 65.0398C89.0874 65.7594 90.5332 66.7718 91.5146 67.2887C92.4964 67.8056 93.2993 68.3939 93.2993 68.5962C93.2993 68.7984 93.5691 68.9641 93.8989 68.9641C94.2287 68.9641 95.0764 69.4995 95.7822 70.154C96.4875 70.8084 97.2708 71.3439 97.5221 71.3439C97.7734 71.3439 98.0504 71.5043 98.1379 71.7008C98.3612 72.2035 102.214 74.7327 104.483 75.8665C105.53 76.3895 106.494 76.9245 106.625 77.0554C107.041 77.4709 108.73 78.4695 109.808 78.9378C110.381 79.1863 111.085 79.8283 111.372 80.3643C111.659 80.9002 112.23 81.3391 112.641 81.3391C113.052 81.3391 113.798 81.8588 114.298 82.4947C114.798 83.1301 116.006 83.9116 116.984 84.231C118.904 84.8593 120.725 86.0715 122.784 88.0944C123.502 88.7993 124.679 89.5237 125.4 89.7045C126.12 89.8859 127.907 90.7545 129.37 91.636C130.834 92.517 132.19 93.2381 132.384 93.2381C132.578 93.2381 132.886 93.7102 133.07 94.2866C133.618 96.0158 134.522 96.5698 136.795 96.5698C138.364 96.5698 139.077 96.7978 139.402 97.4027C139.648 97.8606 140.834 98.9715 142.036 99.8711C143.283 100.803 144.223 101.892 144.223 102.404C144.223 103.049 144.524 103.271 145.294 103.195C146.624 103.063 148.982 103.993 148.982 104.649C148.982 104.918 149.517 105.137 150.172 105.137C150.826 105.137 151.362 105.367 151.362 105.647C151.362 106.229 152.174 107.043 153.508 107.797C154.012 108.082 154.776 108.939 155.207 109.701C155.793 110.739 156.305 111.064 157.245 110.997C158.089 110.937 158.5 111.144 158.5 111.629C158.5 112.385 160.994 115.132 161.681 115.132C162.122 115.132 163.422 117.032 163.16 117.294C163.07 117.385 161.609 117.564 159.915 117.692C158.221 117.82 155.336 118.271 153.503 118.695C151.671 119.118 149.58 119.585 148.857 119.733C148.134 119.881 147.425 120.191 147.282 120.423C147.139 120.654 145.997 120.844 144.745 120.844C143.012 120.844 142.142 121.124 141.105 122.015C139.835 123.106 139.75 123.396 139.857 126.298C139.929 128.224 139.782 129.411 139.474 129.411C138.8 129.411 137.129 128.415 136.015 127.35C135.147 126.521 135.143 126.433 135.929 125.565C136.684 124.73 136.688 124.651 135.968 124.651C135.503 124.651 135.18 124.269 135.18 123.716C135.18 122.647 133.595 121.634 131.849 121.589C130.989 121.566 130.617 121.261 130.507 120.488C130.414 119.83 129.922 119.309 129.233 119.136C128.615 118.981 127.994 118.552 127.853 118.183C127.711 117.814 127.212 117.512 126.743 117.512C126.274 117.512 125.631 117.097 125.314 116.589C124.841 115.831 124.482 115.74 123.297 116.08C122.171 116.403 121.855 116.345 121.855 115.813C121.855 114.974 121.078 114.916 120.717 115.727C120.571 116.055 120.5 115.791 120.558 115.142C120.674 113.861 118.576 111.325 117.401 111.325C117.028 111.325 116.583 110.77 116.413 110.091C116.21 109.282 115.87 108.948 115.423 109.119C115.049 109.263 114.431 109.068 114.049 108.687C113.668 108.305 113.127 107.993 112.846 107.993C112.565 107.993 112.336 107.708 112.336 107.359C112.336 107.011 111.783 106.43 111.106 106.068C110.43 105.705 109.452 104.812 108.932 104.083C108.413 103.354 107.681 102.757 107.307 102.757C106.932 102.757 106.625 102.543 106.625 102.281C106.625 102.02 106.304 101.805 105.911 101.805C105.519 101.805 105.197 102.02 105.197 102.281C105.197 102.543 104.979 102.757 104.712 102.757C104.432 102.757 104.354 102.254 104.526 101.567C104.71 100.834 104.622 100.377 104.297 100.377C104.007 100.377 103.77 99.842 103.77 99.1876C103.77 98.309 103.517 97.9977 102.803 97.9977C102.271 97.9977 101.72 97.6226 101.578 97.1647C101.067 95.5084 100.556 94.903 99.6271 94.8535C98.2607 94.7807 95.6789 92.7317 95.6789 91.7207C95.6789 91.2462 95.3576 90.8583 94.965 90.8583C94.5724 90.8583 94.2511 90.4442 94.2511 89.9382C94.2511 89.4071 93.8066 88.8773 93.1988 88.6846C92.0276 88.3128 89.4919 85.953 89.4919 85.2348C89.4919 84.9816 88.9884 84.6475 88.3735 84.4932C87.6334 84.3076 87.1004 83.686 86.7982 82.657C86.4841 81.587 86.0905 81.1449 85.537 81.241C85.0687 81.3224 84.7327 81.0739 84.7327 80.6461C84.7327 80.242 84.5433 79.9112 84.3125 79.9112C84.0812 79.9112 83.7661 79.5366 83.6124 79.0782C82.8975 76.9493 80.1305 74.0378 79.1716 74.4057C78.8213 74.54 78.5457 74.3229 78.5457 73.9126C78.5457 73.1768 77.4601 71.8198 76.8714 71.8198C76.4317 71.8198 74.775 69.7799 74.746 69.202C74.7326 68.9403 74.1901 68.2216 73.5405 67.6052C72.8904 66.9888 72.3587 66.3149 72.3587 66.1078C72.3587 65.9008 70.694 64.0493 68.6594 61.9931C63.5533 56.8337 61.4287 56.0051 55.2104 56.7476C51.1827 57.2283 50.4592 57.6462 51.5562 58.8585C52.5728 59.9822 52.5857 60.3968 51.6024 60.3968C50.9904 60.3968 50.8966 60.7114 51.1403 61.9436C51.3083 62.7942 51.5615 65.0969 51.7024 67.0602C52.0541 71.9555 54.2471 77.8155 56.7685 80.5961C57.2288 81.1035 57.6052 81.677 57.6052 81.8707C57.6052 82.0644 57.8836 82.5061 58.2239 82.8521C58.5642 83.1977 59.7768 84.766 60.9181 86.3366C62.8822 89.0396 66.3012 92.8968 68.2463 94.6036C68.7327 95.0305 69.7336 95.9691 70.4703 96.6888C71.207 97.4084 72.1803 97.9977 72.6338 97.9977C73.0869 97.9977 74.2729 98.8544 75.269 99.9015C76.2651 100.949 77.3916 101.805 77.7733 101.805C78.1545 101.805 78.5376 101.97 78.6252 102.171C78.9098 102.828 83.4977 105.492 85.4466 106.133C86.4936 106.477 87.554 106.93 87.8024 107.138C88.0513 107.347 89.2968 107.517 90.5708 107.517C92.6511 107.517 92.8576 107.422 92.593 106.589C92.4307 106.078 92.6344 105.011 93.0446 104.217C93.7452 102.862 93.7324 102.714 92.8314 101.813C92.3036 101.286 91.5655 100.853 91.1914 100.853C90.8178 100.853 90.2191 100.586 89.8612 100.258C88.8956 99.3756 86.1814 97.9977 85.408 97.9977C85.0368 97.9977 84.7327 97.7835 84.7327 97.5217C84.7327 97.2599 84.5071 97.0458 84.2316 97.0458C83.9555 97.0458 82.1375 95.8678 80.1905 94.428C78.244 92.9882 76.4812 91.8102 76.2737 91.8102C75.6916 91.8102 67.5653 83.775 65.4431 81.1011C64.4042 79.7922 63.4471 78.6142 63.3163 78.4833C63.1854 78.3524 62.8451 77.8169 62.5595 77.2934C62.2745 76.7698 61.464 75.3034 60.7587 74.0345C60.0533 72.766 59.1814 70.4633 58.8212 68.9179C58.1663 66.1107 58.1663 66.1083 59.2647 66.1083C60.357 66.1083 63.5066 68.8665 66.3455 72.3082C67.9541 74.2587 73.173 80.0373 77.7795 84.9683C80.0634 87.4133 81.3993 88.4785 82.1818 88.4785C83.0851 88.4785 83.3049 88.7302 83.3049 89.7645C83.3049 91.1248 85.8421 94.19 86.9676 94.19C87.3088 94.19 87.5882 94.3737 87.5882 94.5984C87.5882 94.8235 88.6324 96.131 89.9083 97.5051C91.4132 99.1243 92.3488 99.8082 92.5702 99.4503C92.9152 98.892 94.6195 99.7335 96.0696 101.179C96.5907 101.698 96.5294 101.805 95.7127 101.805C95.1706 101.805 94.727 101.997 94.727 102.23C94.727 102.903 95.9273 103.189 97.7791 102.96C98.7181 102.843 99.4862 102.924 99.4862 103.139C99.4862 103.354 99.905 103.979 100.417 104.529C101.206 105.375 101.238 105.569 100.631 105.802C100.103 106.005 100.05 106.236 100.43 106.678C100.714 107.009 101.23 107.689 101.575 108.189C102.026 108.842 102.459 108.991 103.106 108.718C104.787 108.007 105.594 108.155 106.1 109.265C106.378 109.874 106.824 110.373 107.091 110.373C107.358 110.373 107.577 111.015 107.577 111.801C107.577 112.586 107.954 113.603 108.415 114.061C110.134 115.769 113.404 117.914 113.962 117.699C115.177 117.233 118.523 119.666 118.523 121.016C118.523 121.85 116.641 122.586 116.203 121.924C115.858 121.403 111.921 120.458 107.815 119.912C106.244 119.704 103.032 119.276 100.676 118.962C98.3202 118.648 95.9644 118.21 95.4409 117.989C93.8356 117.312 85.7312 116.674 80.2114 116.791C74.715 116.907 73.0308 116.491 71.781 114.706C71.4317 114.207 70.3475 113.328 69.3724 112.752C68.3972 112.178 67.5995 111.559 67.5995 111.378C67.5995 111.198 66.5287 109.91 65.2199 108.515C63.9112 107.121 62.8403 105.577 62.8403 105.083C62.8403 104.518 62.5048 104.185 61.9356 104.185C61.0185 104.185 59.033 101.41 59.033 100.129C59.033 99.5441 57.5695 96.6345 55.9833 94.0653C55.6987 93.6041 55.1975 93.3299 54.8696 93.4556C54.517 93.5908 54.2738 93.3018 54.2738 92.7474C54.2738 92.2319 54.0753 91.8102 53.8326 91.8102C53.2915 91.8102 51.8942 89.0944 51.8942 88.0415C51.8942 87.6198 51.4634 86.1001 50.9371 84.6641C50.4107 83.2281 49.8439 80.6004 49.6773 78.825C49.5112 77.0502 49.1923 75.4847 48.9687 75.3462C48.1891 74.8646 48.5456 70.9188 49.5126 69.3325C51.097 66.7342 50.9466 66.421 46.501 63.0393C45.1423 62.006 44.7392 61.401 44.92 60.6676C45.0533 60.1259 45.5092 58.2906 45.9332 56.5891C46.3573 54.8875 46.8256 52.9061 46.9736 52.1864C47.1216 51.4668 47.4329 50.8775 47.6646 50.8775C47.8969 50.8775 48.0868 50.5634 48.0868 50.1798C48.0868 48.3645 53.1867 38.513 56.3492 34.2189C63.3524 24.7106 72.1027 16.4813 77.8318 14.0158C78.8789 13.5651 80.1072 13.0006 80.5617 12.7607C81.0162 12.5208 81.7934 12.3247 82.2884 12.3247C82.7833 12.3247 83.4548 12.0034 83.7809 11.6108C84.163 11.1505 85.2405 10.8916 86.8134 10.8816C88.2002 10.873 89.6528 10.5651 90.1777 10.1677C90.686 9.78356 91.4889 9.46895 91.9624 9.46895C92.436 9.46895 92.8233 9.30046 92.8233 9.09484C92.8233 8.88923 94.59 8.34568 96.7497 7.88686C98.9094 7.42803 101.426 6.85355 102.342 6.61033C103.739 6.24003 109.264 5.65031 117.095 5.03585C119.082 4.88021 128.062 5.13437 130.421 5.41281ZM77.9251 28.9396L76.1147 29.2213L79.5908 32.6592C83.7499 36.7729 92.8762 43.1218 102.973 48.9256C104.066 49.5534 105.031 50.2498 105.118 50.4725C105.205 50.6953 105.58 50.8775 105.951 50.8775C106.322 50.8775 106.625 51.0422 106.625 51.2436C106.625 51.4449 107.856 52.2878 109.362 53.1169C110.867 53.9456 112.568 55.0631 113.142 55.6C113.717 56.1374 115.109 57.0565 116.236 57.6433C117.363 58.2302 118.678 59.036 119.158 59.4344C119.638 59.8328 120.474 60.5334 121.015 60.9917C121.557 61.4501 122.449 61.8275 122.998 61.8308C123.547 61.8337 126.031 63.3434 128.517 65.1854C131.004 67.0269 133.788 68.9998 134.704 69.5685C135.621 70.1378 137.075 71.2411 137.938 72.0212C138.8 72.8008 139.948 73.7708 140.489 74.1763C141.03 74.5818 142.574 75.7765 143.919 76.8317C145.264 77.8864 147.081 79.2539 147.956 79.8707C148.832 80.4876 150.095 81.4985 150.762 82.1177C151.43 82.7365 152.373 83.2429 152.859 83.2429C153.344 83.2429 153.741 83.5642 153.741 83.9568C153.741 84.3495 153.955 84.6708 154.217 84.6708C154.479 84.6708 154.693 85.2234 154.693 85.8983C154.693 87.0035 154.83 87.0963 156.062 86.8255C156.991 86.6217 157.669 86.7626 158.17 87.2638C158.576 87.6698 159.104 88.0025 159.344 88.0025C159.984 88.0025 162.308 90.0924 162.308 90.6688C162.308 91.1405 164.444 93.2381 164.925 93.2381C165.174 93.2381 166.341 94.1933 170.12 97.4927C172.821 99.8501 174.206 101.458 174.206 102.238C174.206 102.523 174.512 102.757 174.886 102.757C175.259 102.757 175.849 103.025 176.195 103.352C177.243 104.344 179.1 105.068 181.107 105.267C182.614 105.416 183.332 105.199 184.557 104.225C185.408 103.549 186.104 102.738 186.104 102.424C186.104 102.11 186.464 101.651 186.904 101.405C187.639 100.993 187.642 100.895 186.938 100.191C186.516 99.7702 185.705 99.4256 185.134 99.4256C184.552 99.4256 182.95 98.3784 181.492 97.0458C180.06 95.7369 178.584 94.666 178.213 94.666C177.841 94.666 177.537 94.3447 177.537 93.952C177.537 93.4723 177.057 93.2381 176.073 93.2381C174.614 93.2381 171.826 91.0748 171.826 89.943C171.826 89.6612 171.612 89.4304 171.35 89.4304C171.089 89.4304 170.018 88.5737 168.971 87.5265C167.924 86.4794 166.748 85.6227 166.357 85.6227C165.967 85.6227 165.38 85.1943 165.053 84.6708C164.726 84.1472 164.174 83.7189 163.827 83.7189C163.48 83.7189 162.496 83.023 161.642 82.172C159.353 79.894 157.958 78.7931 156.359 78.0007C154.746 77.202 154.615 77.1092 152.313 75.1539C151.397 74.3757 150.487 73.7356 150.291 73.7313C150.094 73.727 149.934 73.4943 149.934 73.2139C149.934 72.5547 148.723 71.3439 148.064 71.3439C147.784 71.3439 147.554 71.1711 147.554 70.9593C147.554 70.748 146.698 70.1973 145.651 69.7351C144.604 69.273 143.747 68.6966 143.747 68.4538C143.747 68.2106 143.312 68.0121 142.78 68.0121C142.248 68.0121 141.69 67.6909 141.54 67.2982C141.389 66.9055 140.853 66.5843 140.35 66.5843C139.846 66.5843 139.31 66.263 139.16 65.8703C139.009 65.4777 138.587 65.1564 138.223 65.1564C137.858 65.1564 137.56 64.9465 137.56 64.6895C137.56 64.4329 137.04 64.0921 136.404 63.9322C135.715 63.7594 134.937 62.9869 134.478 62.0193C134.054 61.1269 133.365 60.3968 132.945 60.3968C132.526 60.3968 131.469 59.6614 130.596 58.7628C129.724 57.8647 128.886 57.3292 128.735 57.5729C128.271 58.3244 127.714 58.0812 125.932 56.3511C124.988 55.4349 124.007 54.6852 123.75 54.6852C123.493 54.6852 123.282 54.4901 123.282 54.2521C123.282 53.7419 117.816 50.2164 116.262 49.7243C115.673 49.5382 115.192 49.186 115.192 48.9418C115.192 48.6976 114.893 48.4977 114.529 48.4977C114.164 48.4977 113.742 48.1765 113.592 47.7838C113.441 47.3911 113.063 47.0699 112.751 47.0699C112.439 47.0699 111.05 46.2131 109.663 45.166C108.276 44.1189 107.017 43.2622 106.863 43.2622C106.71 43.2622 106.137 42.8443 105.589 42.3341C105.041 41.8233 103.979 41.2708 103.229 41.1061C102.479 40.9414 101.866 40.6096 101.866 40.3688C101.866 40.1275 101.545 39.9304 101.152 39.9304C100.759 39.9304 100.438 39.7353 100.438 39.4968C100.438 39.1199 99.4196 38.5135 95.1792 36.3669C94.669 36.1085 94.2511 35.7334 94.2511 35.534C94.2511 35.3341 94.0374 35.1708 93.7761 35.1708C93.5153 35.1708 92.2837 34.4493 91.0396 33.5673C85.4161 29.5797 81.8638 28.326 77.9251 28.9396ZM219.656 61.8247C219.494 62.0864 219.589 62.3006 219.866 62.3006C220.143 62.3006 220.37 62.0864 220.37 61.8247C220.37 61.5629 220.276 61.3487 220.16 61.3487C220.045 61.3487 219.818 61.5629 219.656 61.8247ZM218.228 63.2525C218.39 63.5143 218.617 63.7285 218.732 63.7285C218.848 63.7285 218.942 63.5143 218.942 63.2525C218.942 62.9908 218.715 62.7766 218.438 62.7766C218.161 62.7766 218.067 62.9908 218.228 63.2525ZM126.519 84.29C127.227 84.9982 127.256 85.6227 126.58 85.6227C126.045 85.6227 124.71 84.458 124.71 83.9906C124.71 83.5028 125.934 83.7051 126.519 84.29ZM130.421 86.5399C130.421 86.7821 130.796 87.0787 131.254 87.1986C131.767 87.3324 131.583 87.4375 130.778 87.4713C129.908 87.508 129.469 87.2876 129.469 86.8126C129.469 86.4199 129.683 86.0987 129.945 86.0987C130.207 86.0987 130.421 86.2971 130.421 86.5399ZM134.228 90.0953C134.228 90.2367 133.907 90.229 133.515 90.0786C133.122 89.9278 132.801 89.4908 132.801 89.1077C132.801 88.5027 132.895 88.5051 133.515 89.1243C133.907 89.517 134.228 89.9539 134.228 90.0953ZM85.4466 90.3823C85.6084 90.6441 85.5137 90.8583 85.2367 90.8583C84.9597 90.8583 84.7327 90.6441 84.7327 90.3823C84.7327 90.1205 84.8269 89.9063 84.9426 89.9063C85.0582 89.9063 85.2848 90.1205 85.4466 90.3823ZM143.747 96.0938C143.747 96.3556 143.546 96.5698 143.299 96.5698C143.053 96.5698 142.719 96.3556 142.557 96.0938C142.395 95.8321 142.597 95.6179 143.005 95.6179C143.413 95.6179 143.747 95.8321 143.747 96.0938ZM43.1286 97.8787C43.2648 98.3366 43.6864 99.318 44.0657 100.059C44.445 100.8 44.7553 102.34 44.7553 103.482C44.7553 104.623 44.9548 105.68 45.1979 105.831C45.4416 105.981 45.7733 107.332 45.9352 108.833C46.097 110.335 46.4482 111.958 46.7147 112.441C47.0802 113.103 46.9979 113.543 46.3797 114.226C45.929 114.724 45.394 115.132 45.1913 115.132C44.6559 115.132 43.3276 110.274 43.3276 108.316C43.3276 107.396 43.1439 106.573 42.9188 106.485C42.2772 106.237 41.7351 97.0458 42.3619 97.0458C42.6475 97.0458 42.993 97.4208 43.1286 97.8787ZM102.818 102.004C102.818 102.375 103.07 102.762 103.378 102.865C103.696 102.971 103.778 103.31 103.569 103.649C103.284 104.11 102.992 104.06 102.295 103.428C101.212 102.449 101.111 101.329 102.104 101.329C102.496 101.329 102.818 101.633 102.818 102.004ZM57.7689 110.202C59.0368 111.613 60.9109 113.613 61.9332 114.645C64.1429 116.878 64.2562 117.512 62.4439 117.512C61.7019 117.512 60.9633 117.644 60.8024 117.805C60.2451 118.362 56.7005 118.38 56.2531 117.828C56.0061 117.524 55.4279 115.882 54.9681 114.18C54.5084 112.479 53.9501 110.883 53.7269 110.634C53.5042 110.386 53.3219 109.461 53.3219 108.58C53.3219 107.137 53.429 107.01 54.3927 107.307C54.9819 107.488 56.5011 108.791 57.7689 110.202ZM104.245 110.611C104.245 111.003 104.46 111.325 104.721 111.325C104.983 111.325 105.197 111.003 105.197 110.611C105.197 110.218 104.983 109.897 104.721 109.897C104.46 109.897 104.245 110.218 104.245 110.611ZM123.163 126.151C123.317 126.739 123.83 127.031 124.707 127.031C126.126 127.031 127.362 128.109 126.865 128.914C126.696 129.187 126.242 129.411 125.855 129.411C125.469 129.411 124.644 129.744 124.023 130.151C122.701 131.017 122.088 130.443 122.516 128.737C122.703 127.993 122.487 127.366 121.847 126.786C121.328 126.316 120.903 125.664 120.903 125.336C120.903 124.413 122.897 125.132 123.163 126.151ZM166.353 127.274C170.803 127.395 176.478 127.706 178.965 127.964C181.452 128.222 184.626 128.439 186.019 128.446C189.842 128.466 189.919 128.635 189.864 136.874C189.837 140.753 189.666 144.463 189.483 145.118L189.149 146.308L177.399 146.134C170.937 146.038 164.951 145.891 164.098 145.807C163.244 145.723 160.676 145.641 158.391 145.624L154.237 145.594L151.678 142.993C148.773 140.041 148.518 139.07 148.51 130.926L148.506 126.492L153.384 126.772C156.067 126.927 161.903 127.152 166.353 127.274ZM53.8369 127.864C55.0757 128.444 55.7006 129.094 55.8962 130.006C56.7338 133.904 56.7509 134.171 56.1684 134.171C55.8419 134.171 55.159 133.689 54.6507 133.1C54.1419 132.511 53.1244 131.366 52.3896 130.556C49.536 127.41 50.2056 126.164 53.8369 127.864ZM106.149 127.946C111.107 128.714 113.764 129.511 113.764 130.229C113.764 130.564 114.095 130.839 114.499 130.839C115.09 130.839 115.17 131.19 114.907 132.624C114.726 133.606 114.437 134.516 114.265 134.647C113.566 135.177 111.86 138.384 111.86 139.168C111.86 141.06 107.365 147.09 105.07 148.277C103.76 148.955 102.932 148.976 97.85 148.465C94.6928 148.148 89.3253 147.933 85.9225 147.988C82.5197 148.043 79.5109 148.063 79.2363 148.031C78.0303 147.892 77.4744 144.364 77.4563 136.732C77.4373 128.561 77.6272 127.751 79.6513 127.368C81.8067 126.961 102.733 127.417 106.149 127.946ZM89.4919 132.537C89.4919 134.17 91.0548 136.884 92.8233 138.32C93.6914 139.025 95.2029 139.111 95.2029 138.454C95.2029 138.193 95.4961 137.978 95.8545 137.978C96.219 137.978 96.6207 137.297 96.7659 136.432C96.9087 135.581 97.1595 134.548 97.3227 134.135C97.5069 133.671 97.1352 132.901 96.3466 132.113C95.2553 131.021 94.6737 130.839 92.2827 130.839H89.4919V132.537ZM167.638 131.41C166.695 132.354 166.987 133.871 168.412 135.432C170.054 137.23 171.387 137.978 172.945 137.978C173.979 137.978 174.191 137.679 174.641 135.58C175.072 133.573 175.03 132.991 174.388 132.01C173.721 130.993 173.264 130.839 170.915 130.839C169.427 130.839 167.952 131.096 167.638 131.41ZM131.849 134.845C131.849 135.216 132.009 135.59 132.206 135.678C132.402 135.765 132.985 136.693 133.502 137.74C134.019 138.788 135.464 141.302 136.715 143.328C137.965 145.354 138.988 147.133 138.988 147.282C138.988 147.537 140.714 151.262 144.512 159.202C146.121 162.566 146.554 164.632 145.651 164.632C145.389 164.632 145.175 165.134 145.175 165.747C145.175 166.869 144.249 167.519 140.534 169.005C139.683 169.346 138.988 169.842 138.988 170.108C138.988 171.182 136.911 171.771 132.811 171.859C128.674 171.947 128.466 171.901 127.09 170.582C126.304 169.829 125.662 168.838 125.662 168.379C125.662 167.324 125.318 167.121 122.88 166.731C121.099 166.446 120.903 166.512 120.903 167.393C120.903 167.932 120.581 168.693 120.189 169.086C119.796 169.478 119.475 170.017 119.475 170.282C119.475 170.903 123.582 175.101 125.375 176.313C127.559 177.789 131.068 179.87 131.849 180.151C132.242 180.293 132.946 180.614 133.415 180.866C133.884 181.117 134.47 181.198 134.718 181.044C134.967 180.891 136.189 180.645 137.436 180.498C138.682 180.35 141.282 179.719 143.213 179.095C145.144 178.47 147 177.959 147.339 177.959C147.677 177.959 148.666 177.602 149.538 177.165C152.462 175.7 152.773 175.579 153.639 175.579C154.114 175.579 154.706 175.387 154.955 175.152C155.204 174.917 156.264 174.631 157.311 174.515C158.358 174.4 159.536 174.164 159.928 173.99C160.415 173.775 161.021 174.233 161.832 175.426C162.486 176.388 163.236 177.406 163.499 177.687C163.761 177.968 164.541 179.054 165.232 180.101C167.057 182.865 172.755 188.906 173.537 188.906C173.905 188.906 174.206 189.12 174.206 189.382C174.206 189.644 174.848 189.858 175.634 189.858C176.419 189.858 177.061 189.668 177.061 189.435C177.061 188.86 172.984 183.353 171.032 181.291C170.164 180.375 169.453 179.48 169.451 179.302C169.449 179.124 169.153 178.686 168.796 178.328C168.437 177.97 167.99 177.19 167.801 176.595L167.458 175.514L169.395 176.736C171.887 178.31 172.402 178.293 172 176.65C171.584 174.952 171.064 174.644 168.609 174.635C167.194 174.63 166.342 174.347 165.787 173.699C164.992 172.77 162.33 168.304 161.234 166.06C160.915 165.406 160.383 164.587 160.053 164.241C159.723 163.895 159.452 163.306 159.452 162.933C159.452 162.558 159.238 162.252 158.976 162.252C158.715 162.252 158.5 162.024 158.5 161.745C158.5 161.466 158.004 160.555 157.397 159.722C156.058 157.884 154.445 154.251 154.806 153.889C154.95 153.745 155.616 154.176 156.286 154.846C156.957 155.517 157.599 156.065 157.712 156.065C157.986 156.065 164.663 162.734 165.858 164.201C166.371 164.831 168.244 167.351 170.02 169.802C173.629 174.78 176.226 177.383 178.009 177.806C178.666 177.962 179.417 178.254 179.679 178.455C180.141 178.808 181.921 179.071 183.129 178.964C184.091 178.879 183.815 177.929 182.534 176.922C181.88 176.407 181.345 175.741 181.345 175.441C181.345 175.141 180.846 174.46 180.236 173.929C179.626 173.397 177.974 171.355 176.565 169.392C175.156 167.428 173.877 165.715 173.723 165.584C173.568 165.453 172.822 164.489 172.064 163.442C170.553 161.353 165.784 156.511 163.391 154.637C162.556 153.983 161.863 153.219 161.852 152.941C161.827 152.316 181.403 152.527 187.77 153.221C194.617 153.966 198.003 153.977 198.45 153.253C198.677 152.887 199.65 152.63 200.759 152.646L202.676 152.672L202.838 150.084C202.927 148.661 202.826 147.497 202.615 147.497C202.403 147.497 202.296 146.587 202.377 145.475C202.488 143.929 202.77 143.343 203.568 142.993C204.143 142.741 204.875 142.045 205.195 141.446C205.515 140.848 206.052 140.358 206.387 140.358C206.722 140.358 207.568 139.609 208.267 138.692C209.512 137.06 209.606 137.026 212.97 137.026C216.143 137.026 216.45 136.937 217.039 135.837C217.731 134.543 218.942 134.225 218.942 135.337C218.942 135.717 218.742 137.056 218.497 138.312C218.253 139.568 217.925 141.383 217.769 142.346C217.526 143.844 217.174 144.246 215.32 145.143C214.129 145.72 213.042 146.486 212.904 146.845C212.766 147.204 212.192 147.498 211.629 147.498C211.066 147.498 210.349 147.907 210.037 148.407C209.288 149.607 206.923 150.107 205.678 149.33C205.144 148.996 204.564 148.867 204.388 149.043C204.048 149.383 204.094 159.015 204.471 166.536C204.813 173.377 204.013 183.768 202.793 188.316C201.707 192.367 199.03 197.998 196.402 201.757C195.579 202.935 194.618 204.459 194.266 205.143C193.915 205.828 193.166 206.9 192.602 207.527C192.038 208.154 190.793 209.629 189.835 210.805C186.759 214.58 183.37 217.94 182.64 217.94C182.249 217.94 181.579 218.475 181.15 219.13C180.722 219.784 180.152 220.32 179.885 220.32C179.618 220.32 178.537 221.118 177.482 222.094C176.428 223.069 175.083 224.194 174.495 224.592C173.906 224.991 172.943 225.776 172.353 226.337C171.763 226.897 170.294 227.733 169.087 228.194C167.88 228.655 163.848 230.927 160.127 233.243C156.406 235.559 152.937 237.454 152.419 237.454C151.901 237.454 150.291 237.997 148.841 238.661C146.443 239.759 145.59 239.874 139.384 239.94L132.563 240.012L128.37 238.019C126.065 236.923 123.923 236.02 123.611 236.011C123.299 236.003 122.628 235.682 122.121 235.297C121.612 234.913 120.827 234.598 120.375 234.598C119.924 234.598 119.483 234.438 119.395 234.241C119.228 233.865 113.97 231.196 111.741 230.356C111.022 230.084 110.432 229.643 110.432 229.375C110.432 229.106 109.89 228.887 109.228 228.887C108.565 228.887 107.9 228.566 107.749 228.173C107.598 227.78 107.201 227.459 106.865 227.459C106.53 227.459 105.213 226.763 103.939 225.912C102.666 225.061 100.821 223.957 99.8408 223.458C98.8604 222.958 98.0585 222.394 98.0585 222.204C98.0585 222.014 97.6834 221.733 97.2256 221.579C96.4865 221.331 95.7917 220.93 94.0393 219.741C93.7633 219.554 92.7877 218.798 91.8715 218.06C89.224 215.929 86.7249 214.132 86.4094 214.132C86.2494 214.132 85.5413 213.597 84.836 212.942C84.1302 212.288 83.3606 211.752 83.1265 211.752C82.8918 211.752 82.2041 211.217 81.5973 210.562C80.991 209.908 80.2705 209.373 79.9963 209.373C79.7217 209.373 79.4976 209.173 79.4976 208.928C79.4976 208.684 79.123 208.364 78.6647 208.217C77.3559 207.798 75.2143 205.769 75.2143 204.948C75.2143 204.54 74.8878 203.879 74.4885 203.479C74.0402 203.03 73.6885 201.574 73.5685 199.665C73.4615 197.967 73.1454 196.15 72.8661 195.629C72.5872 195.107 72.3587 194.148 72.3587 193.499C72.3587 192.849 72.1094 192.234 71.8053 192.133C71.5007 192.031 71.1889 191.21 71.1133 190.308C70.9852 188.791 70.0976 183.44 69.0259 177.721C68.7803 176.412 68.2896 173.628 67.9355 171.534C67.5815 169.439 67.0394 167.258 66.7315 166.686C66.4235 166.114 66.1718 164.874 66.1718 163.928C66.1718 162.983 65.8277 160.84 65.4074 159.166C64.6855 156.292 64.5256 156.067 62.5543 155.14C61.4054 154.6 59.8939 153.517 59.1948 152.732C58.4957 151.947 57.5433 151.305 57.0788 151.305C56.6139 151.305 56.1013 151.091 55.9395 150.829C55.7777 150.568 55.069 150.35 54.3647 150.346C52.6956 150.337 52.2687 150.018 50.8681 147.736C49.4013 145.345 48.6945 142.907 48.28 138.811C47.9797 135.838 48.024 135.599 48.8778 135.599C49.3851 135.599 50.0038 135.802 50.2522 136.051C50.5011 136.3 51.9417 136.591 53.4537 136.698C54.9657 136.806 56.3169 137.007 56.4559 137.146C56.8085 137.499 58.0773 145.496 58.0792 147.379C58.0802 148.23 58.2953 148.925 58.557 148.925C58.8188 148.925 59.033 149.658 59.033 150.554C59.033 152.005 59.2005 152.217 60.5797 152.512C61.4302 152.694 62.3744 153.043 62.6776 153.286C62.9807 153.529 64.0872 153.678 65.1371 153.616C66.1865 153.554 67.3525 153.758 67.7276 154.07C68.2301 154.487 71.7234 154.587 80.9734 154.45C94.8736 154.244 99.9622 154.453 99.9622 155.231C99.9622 155.513 98.6772 156.959 97.1066 158.445C95.5361 159.93 94.2511 161.377 94.2511 161.659C94.2511 161.942 94.0864 162.244 93.8856 162.332C93.6843 162.419 93.0256 163.133 92.4212 163.918C90.3143 166.657 85.1653 171.772 84.5152 171.772C82.6458 171.772 83.9498 175 86.2261 176.008C87.5187 176.58 87.7158 176.533 88.7747 175.39C90.2072 173.844 91.0439 173.834 93.019 175.341C94.9579 176.82 95.6789 176.846 95.6789 175.437C95.6789 174.16 94.8598 173.199 93.7709 173.199C93.3497 173.199 92.6306 172.925 92.1728 172.591C91.3856 172.015 91.3927 171.92 92.3041 170.87C92.8343 170.259 93.5415 169.141 93.8756 168.385C94.2102 167.63 94.6737 167.012 94.9065 167.012C95.1392 167.012 95.7503 166.53 96.2652 165.941C99.9179 161.761 101.675 159.678 102.3 158.784C103.601 156.928 106.214 154.637 107.023 154.644C108.955 154.662 109.13 155.365 107.811 157.807C107.111 159.102 105.916 160.874 105.154 161.747C104.393 162.619 103.77 163.847 103.77 164.475C103.77 165.56 106.172 168.44 107.076 168.44C107.466 168.44 109.044 165.834 112.565 159.381C113.356 157.933 114.232 156.367 114.513 155.901C114.879 155.295 115.828 154.986 117.844 154.816C119.395 154.684 120.868 154.376 121.117 154.131C121.366 153.885 121.954 153.685 122.426 153.685C122.897 153.685 123.291 153.525 123.301 153.328C123.311 153.132 123.407 150.829 123.513 148.212C123.819 140.681 124.138 136.616 124.464 136.087C124.63 135.818 125.557 135.592 126.523 135.583C127.489 135.575 128.695 135.254 129.203 134.869C130.378 133.981 131.849 133.967 131.849 134.845ZM177.312 161.755C177.157 162.006 177.627 162.59 178.355 163.053C179.083 163.517 179.816 164.091 179.985 164.329C180.153 164.567 180.545 164.285 180.856 163.704C181.167 163.122 181.351 162.612 181.264 162.568C181.178 162.526 180.628 162.223 180.043 161.895C178.772 161.185 177.699 161.131 177.312 161.755ZM82.4697 163.799C82.5772 164.127 83.1307 164.463 83.699 164.547C84.2677 164.63 84.7327 164.898 84.7327 165.141C84.7327 165.385 84.9469 165.584 85.2086 165.584C85.9848 165.584 85.7497 163.807 84.9316 163.493C83.64 162.997 82.2622 163.169 82.4697 163.799ZM73.7865 166.059C73.7865 167.012 74.7317 168.403 75.7483 168.947C76.6801 169.446 76.7168 169.386 76.3955 167.887C75.9943 166.014 76.1752 166.254 74.8573 165.849C74.1834 165.642 73.7865 165.72 73.7865 166.059ZM99.1288 172.319C98.6615 172.787 98.9071 173.081 100.322 173.752C102.06 174.574 104.48 174.96 103.532 174.263C103.27 174.071 102.82 173.485 102.532 172.962C101.917 171.844 99.9712 171.477 99.1288 172.319ZM184.941 172.68C184.708 173.057 188.228 175.103 189.11 175.103C189.654 175.103 189.473 173.428 188.864 172.819C188.196 172.15 185.33 172.05 184.941 172.68ZM75.7073 173.891C76.0904 174.271 77.2074 174.917 78.1888 175.326C79.8678 176.024 79.9735 176.017 79.9735 175.205C79.9735 173.846 78.9893 173.199 76.9209 173.199C75.2476 173.199 75.0967 173.285 75.7073 173.891ZM100.438 175.83C100.438 176.332 104.976 180.323 105.554 180.331C106.073 180.338 106.373 178.62 106.03 177.608C105.965 177.415 104.84 176.886 103.532 176.433C100.961 175.545 100.438 175.442 100.438 175.83ZM155.645 181.053C155.971 181.446 156.847 181.767 157.592 181.767C158.6 181.767 158.876 181.585 158.673 181.053C158.501 180.605 157.774 180.339 156.726 180.339C155.292 180.339 155.138 180.441 155.645 181.053ZM179.661 180.844C179.489 181.122 178.81 181.555 178.152 181.805L176.955 182.26L178.154 183.203C178.814 183.722 179.801 184.147 180.349 184.147C181.193 184.147 181.345 183.857 181.345 182.243C181.345 180.902 181.141 180.339 180.659 180.339C180.281 180.339 179.833 180.566 179.661 180.844ZM91.1576 181.32C90.6341 181.522 89.815 181.812 89.3377 181.964C88.6172 182.193 88.5767 182.347 89.0997 182.868C90.202 183.968 92.88 184.692 93.6077 184.088C94.5476 183.308 94.3967 182.447 93.1803 181.653C92.5083 181.214 91.7549 181.09 91.1576 181.32ZM100.438 182.413C100.438 182.574 101.29 183.245 102.332 183.902C105.026 185.604 105.969 185.443 104.519 183.53C103.909 182.726 100.438 181.776 100.438 182.413ZM89.0331 188.133C89.4162 188.494 90.2986 188.92 90.9934 189.083C92.0842 189.337 92.2232 189.247 92.009 188.428C91.8187 187.701 91.3589 187.478 90.0483 187.478C88.5748 187.478 88.433 187.57 89.0331 188.133ZM108.379 188.263C107.983 188.658 109.897 190.334 110.743 190.334C111.709 190.334 111.513 189.009 110.464 188.447C109.402 187.879 108.815 187.827 108.379 188.263ZM169.447 190.572C169.773 190.965 170.441 191.286 170.932 191.286C171.424 191.286 171.826 191.513 171.826 191.79C171.826 192.067 172.04 192.162 172.302 192C172.564 191.838 172.778 191.29 172.778 190.782C172.778 190.017 172.441 189.858 170.816 189.858C169.126 189.858 168.936 189.957 169.447 190.572ZM96.1695 191.45C96.1872 192.09 98.4849 193.874 98.838 193.521C98.9689 193.39 98.8042 192.847 98.472 192.315C97.791 191.225 96.1467 190.606 96.1695 191.45ZM158.671 191.643C159.066 192.266 162.302 193.831 162.592 193.54C162.745 193.387 162.729 192.817 162.557 192.274C162.309 191.492 161.849 191.286 160.344 191.286C159.299 191.286 158.546 191.446 158.671 191.643ZM101.39 192.576C101.39 193.113 103.173 194.618 103.808 194.618C104.085 194.618 104.243 194.136 104.16 193.547C104.051 192.78 103.636 192.433 102.699 192.326C101.979 192.243 101.39 192.355 101.39 192.576ZM81.8772 194.783C81.8772 195.233 83.7233 196.998 84.1935 196.998C85.0159 196.998 84.836 195.235 83.9798 194.907C83.1621 194.593 81.8772 194.517 81.8772 194.783ZM91.5507 198.147C90.8692 198.924 91.6145 199.853 92.9185 199.853C93.9275 199.853 93.9784 199.447 93.1127 198.306C92.3665 197.324 92.2808 197.315 91.5507 198.147ZM164.791 199.615C166.158 200.883 168.019 201.213 168.019 200.186C168.019 199.105 166.929 198.425 165.192 198.425H163.507L164.791 199.615ZM125.186 204.674C118.684 205.011 112.832 205.851 112.122 206.549C111.873 206.793 111.294 206.993 110.836 206.993C110.377 206.993 109.469 207.235 108.818 207.532C107.895 207.953 107.761 208.197 108.209 208.645C108.525 208.961 109.315 209.348 109.965 209.506C110.615 209.664 112.431 210.156 114.002 210.6C115.747 211.092 119.913 211.555 124.71 211.791C129.029 212.003 134.49 212.343 136.846 212.547C142.13 213.005 149.82 213.039 153.127 212.62C155.953 212.261 158.327 211.039 158.658 209.772C158.783 209.297 159.419 208.704 160.074 208.456C163.739 207.062 159.982 205.565 152.819 205.565C149.464 205.565 147.572 205.38 147.459 205.04C147.251 204.418 134.259 204.205 125.186 204.674ZM83.2707 206.487C83.8556 206.994 84.638 207.293 85.0092 207.15C86.4589 206.594 85.2805 205.565 83.1931 205.565C82.2227 205.565 82.2241 205.579 83.2707 206.487ZM102.818 235.476C102.818 235.696 103.621 236.285 104.602 236.785C105.584 237.284 106.494 237.823 106.625 237.982C106.756 238.142 107.72 238.561 108.767 238.914C109.814 239.266 110.992 239.802 111.384 240.102C111.777 240.404 113.383 241.226 114.954 241.929C116.524 242.633 118.377 243.52 119.072 243.901C119.767 244.282 120.678 244.594 121.095 244.594C121.513 244.594 121.855 244.791 121.855 245.032C121.855 245.273 122.495 245.61 123.277 245.782C124.059 245.954 124.821 246.292 124.971 246.534C125.12 246.776 125.936 246.973 126.785 246.973C127.633 246.973 128.531 247.172 128.779 247.415C129.388 248.01 138.049 249.021 141.605 248.912C144.318 248.829 147.127 248.284 149.22 247.434C149.743 247.221 151.395 246.923 152.89 246.771C155.693 246.485 157.794 245.766 158.891 244.718C159.237 244.388 159.826 244.118 160.2 244.118C160.574 244.118 160.88 243.903 160.88 243.642C160.88 243.38 161.201 243.166 161.594 243.166C161.987 243.166 162.309 243.005 162.311 242.809C162.314 242.348 165.052 240.786 165.856 240.786C166.5 240.786 167.067 242.808 167.067 245.101C167.067 245.838 167.281 246.574 167.543 246.735C167.805 246.897 168.019 247.548 168.019 248.182C168.019 248.815 168.314 250.141 168.676 251.129C169.037 252.115 169.595 253.887 169.915 255.065C170.659 257.794 174.229 267.125 174.651 267.44C174.826 267.571 175.458 268.481 176.054 269.463C176.651 270.445 177.335 271.247 177.576 271.247C177.817 271.247 178.013 271.569 178.013 271.961C178.013 272.354 178.176 272.675 178.374 272.675C178.573 272.675 179.009 273.112 179.342 273.646C179.842 274.446 179.826 274.738 179.252 275.312C178.87 275.694 178.247 276.007 177.869 276.007C177.491 276.007 176.244 276.517 175.099 277.14C173.953 277.762 171.945 278.642 170.636 279.094C169.328 279.546 167.828 280.089 167.305 280.301C165.889 280.875 158.622 282.701 155.787 283.196C154.426 283.434 152.752 283.841 152.068 284.101C151.384 284.362 150.264 284.574 149.58 284.574C148.895 284.574 147.678 284.775 146.874 285.02C144.83 285.643 138.675 286.74 130.659 287.909C126.04 288.583 109.681 288.333 108.291 287.568C107.767 287.279 106.375 286.79 105.197 286.48C103.079 285.923 99.1783 283.727 97.3541 282.065C96.8358 281.592 95.9254 281.084 95.3314 280.935C94.737 280.786 94.2511 280.496 94.2511 280.291C94.2511 280.086 93.7157 279.783 93.0613 279.619C92.3222 279.434 91.8715 278.983 91.8715 278.429C91.8715 277.876 92.3222 277.425 93.0613 277.239C93.7157 277.075 94.2511 276.731 94.2511 276.474C94.2511 276.217 94.5381 276.007 94.8884 276.007C95.2391 276.007 96.5241 274.907 97.7439 273.562C99.877 271.21 100.471 269.714 99.5072 269.118C99.0589 268.841 99.1769 268.125 99.9802 266.25C101.072 263.701 101.749 244.581 100.927 239.487C100.621 237.593 100.506 235.825 100.671 235.559C101.031 234.976 102.818 234.907 102.818 235.476ZM84.253 278.577C84.5171 279.336 84.7327 280.46 84.7327 281.076C84.7327 281.691 84.9469 282.195 85.2086 282.195C85.4704 282.195 85.6845 282.73 85.6845 283.384C85.6845 284.039 85.4404 284.574 85.142 284.574C84.3496 284.574 83.3378 283.07 83.3202 281.866C83.3116 281.292 83.1074 280.701 82.8661 280.552C82.0928 280.074 81.7453 274.474 82.3926 272.913C82.9803 271.495 82.987 271.504 83.3792 274.341C83.5962 275.912 83.9893 277.818 84.253 278.577ZM170.636 294.57C170.475 294.831 170.141 295.046 169.894 295.046C169.648 295.046 169.447 294.831 169.447 294.57C169.447 294.308 169.781 294.094 170.189 294.094C170.596 294.094 170.798 294.308 170.636 294.57ZM48.4661 312.083C48.5894 314.635 48.7693 315.117 49.8939 315.909C50.6016 316.407 51.6619 316.964 52.2511 317.147C53.5794 317.56 53.6198 318.546 52.3591 319.806L51.3968 320.769L50.3365 319.627C47.3453 316.406 47.2154 316.171 47.133 313.821C46.9874 309.672 47.0997 308.757 47.7298 308.965C48.0977 309.087 48.3785 310.277 48.4661 312.083ZM48.8007 320.271C48.9625 320.533 48.8678 320.747 48.5908 320.747C48.3138 320.747 48.0868 320.533 48.0868 320.271C48.0868 320.01 48.181 319.795 48.2967 319.795C48.4123 319.795 48.6389 320.01 48.8007 320.271ZM51.8942 327.224C51.8942 327.588 52.094 327.887 52.3382 327.887C52.5823 327.887 52.9321 328.369 53.1158 328.958C53.3 329.547 53.6888 330.186 53.9811 330.378C54.3604 330.628 54.349 330.73 53.9416 330.735C53.0073 330.747 51.1141 328.697 50.7724 327.305C50.5183 326.268 50.5987 326.064 51.1746 326.285C51.5701 326.437 51.8942 326.859 51.8942 327.224ZM205.617 327.649C205.617 328.042 205.295 328.363 204.903 328.363C204.159 328.363 203.958 327.8 204.506 327.252C205.054 326.705 205.617 326.905 205.617 327.649ZM196.098 331.428C196.098 331.806 195.894 332.241 195.643 332.396C195.393 332.55 195.301 332.972 195.439 333.333C195.749 334.14 193.822 334.844 193.147 334.169C192.509 333.531 193.133 331.694 193.988 331.694C194.363 331.694 194.67 331.48 194.67 331.219C194.67 330.957 194.992 330.743 195.384 330.743C195.777 330.743 196.098 331.051 196.098 331.428ZM199.788 331.338C199.507 332.19 197.332 333.221 197.119 332.602C196.922 332.026 198.43 330.78 199.35 330.758C199.699 330.749 199.896 331.011 199.788 331.338ZM190.582 334.005C190.721 334.229 190.305 334.909 189.658 335.516L188.483 336.62V335.382C188.483 334.603 188.792 334.063 189.316 333.926C189.774 333.807 190.19 333.684 190.24 333.654C190.29 333.623 190.444 333.782 190.582 334.005ZM192.14 335.116C191.988 335.495 191.875 335.382 191.852 334.828C191.832 334.326 191.944 334.045 192.102 334.203C192.26 334.361 192.277 334.772 192.14 335.116ZM185.369 335.435C185.778 336.725 185.239 337.754 184.031 337.985C182.073 338.359 181.793 337.911 182.909 336.188C184.085 334.372 184.948 334.108 185.369 335.435ZM61.1299 336.693C61.8904 337.347 62.8004 337.882 63.1525 337.882C63.5042 337.882 63.7941 338.042 63.7965 338.239C63.7993 338.436 64.7631 339.019 65.9381 339.535C67.1136 340.052 68.0755 340.627 68.0755 340.812C68.0755 340.998 68.5571 341.301 69.1463 341.485C69.7355 341.67 71.3279 342.327 72.6852 342.945C74.0426 343.564 75.3813 344.069 75.6597 344.069C75.9381 344.069 76.1661 344.284 76.1661 344.545C76.1661 344.807 76.5716 345.021 77.067 345.021C77.5625 345.021 78.0979 345.36 78.2564 345.773C78.4939 346.392 78.294 346.47 77.128 346.214C76.3489 346.042 74.6893 345.384 73.44 344.75C72.1908 344.116 70.9191 343.596 70.6135 343.595C70.3085 343.594 69.9872 343.433 69.8997 343.237C69.8126 343.04 68.7774 342.402 67.5995 341.818C62.8546 339.467 59.033 336.826 59.033 335.9C59.033 335.211 59.7007 335.464 61.1299 336.693ZM178.013 337.406C178.537 337.93 178.965 338.535 178.965 338.751C178.965 339.546 176.693 341.247 175.351 341.456C173.854 341.69 170.124 342.611 168.971 343.031C168.075 343.358 163.057 344.509 160.995 344.861C160.141 345.008 159.326 345.317 159.182 345.55C159.038 345.783 158.067 345.973 157.025 345.973C155.982 345.973 153.585 346.282 151.699 346.66C144.79 348.043 129.456 348.766 119.713 348.168C118.666 348.103 117.334 348.257 116.753 348.51C115.99 348.841 115.473 348.784 114.897 348.304C114.448 347.931 112.407 347.503 110.242 347.328C104.325 346.851 98.0585 345.871 98.0585 345.423C98.0585 345.202 97.3217 345.021 96.4208 345.021C95.5199 345.021 94.668 344.835 94.5276 344.608C94.3872 344.381 93.423 344.059 92.3855 343.893C89.2387 343.39 89.46 342.532 92.6549 342.847C110.154 344.57 115.24 344.859 130.017 344.967C141.646 345.052 146.124 344.935 146.368 344.539C146.59 344.18 147.467 344.099 148.935 344.301C151.374 344.636 157.549 343.753 157.549 343.069C157.549 342.834 158.041 342.642 158.643 342.642C159.245 342.642 159.977 342.402 160.27 342.109C160.662 341.717 160.968 341.842 161.431 342.585C162.039 343.558 163.26 343.983 163.26 343.222C163.26 342.686 166.068 341.703 166.34 342.144C166.727 342.771 169.162 342.07 170.026 341.084C170.598 340.432 171.189 340.238 171.991 340.439C172.975 340.686 173.178 340.525 173.421 339.304C173.649 338.17 173.953 337.882 174.923 337.882C175.592 337.882 176.263 337.561 176.413 337.168C176.766 336.249 176.872 336.265 178.013 337.406ZM181.345 338.12C181.345 338.516 180.922 338.834 180.393 338.834C179.34 338.834 179.103 338.098 180.036 337.721C181.071 337.303 181.345 337.387 181.345 338.12Z" fill="black"/>
</svg>
